HIERARCHY
ROOT Hips
{
 OFFSET 0.000000 0.000000 0.000000
 CHANNELS 6 Xposition Yposition Zposition Yrotation Xrotation Zrotation
 JOINT Chest
 {
  OFFSET 0.000000 8.841881 -6.654894
  CHANNELS 3 Yrotation Xrotation Zrotation
  JOINT Chest2
  {
   OFFSET 0.000000 7.072353 0.028336
   CHANNELS 3 Yrotation Xrotation Zrotation
   JOINT Chest3
   {
    OFFSET 0.000000 10.125157 -0.014641
    CHANNELS 3 Yrotation Xrotation Zrotation
    JOINT Chest4
    {
     OFFSET 0.000000 10.441534 -0.016102
     CHANNELS 3 Yrotation Xrotation Zrotation
     JOINT Neck
     {
      OFFSET 0.000000 16.849355 0.013667
      CHANNELS 3 Yrotation Xrotation Zrotation
      JOINT Head
      {
       OFFSET 0.000000 10.107081 0.000000
       CHANNELS 3 Yrotation Xrotation Zrotation
       End Site
       {
        OFFSET 0.000000 15.162723 0.000000
       }
      }
     }
     JOINT RightCollar
     {
      OFFSET -2.775264 10.553866 0.006834
      CHANNELS 3 Yrotation Xrotation Zrotation
      JOINT RightShoulder
      {
       OFFSET -16.020521 0.000000 0.000000
       CHANNELS 3 Yrotation Xrotation Zrotation
       JOINT RightElbow
       {
        OFFSET -23.902096 0.000000 0.000000
        CHANNELS 3 Yrotation Xrotation Zrotation
        JOINT RightWrist
        {
         OFFSET -23.631001 0.000000 -0.000566
         CHANNELS 3 Yrotation Xrotation Zrotation
         End Site
         {
          OFFSET -18.828190 0.690323 0.103033
         }
        }
       }
      }
     }
     JOINT LeftCollar
     {
      OFFSET 2.775264 10.553866 0.006834
      CHANNELS 3 Yrotation Xrotation Zrotation
      JOINT LeftShoulder
      {
       OFFSET 16.020521 0.000000 0.000000
       CHANNELS 3 Yrotation Xrotation Zrotation
       JOINT LeftElbow
       {
        OFFSET 23.902096 0.000000 0.000000
        CHANNELS 3 Yrotation Xrotation Zrotation
        JOINT LeftWrist
        {
         OFFSET 23.631001 0.000000 -0.000566
         CHANNELS 3 Yrotation Xrotation Zrotation
         End Site
         {
          OFFSET 18.828190 0.690323 0.103033
         }
        }
       }
      }
     }
    }
   }
  }
 }
 JOINT RightHip
 {
  OFFSET -9.646452 0.046004 -0.007286
  CHANNELS 3 Yrotation Xrotation Zrotation
  JOINT RightKnee
  {
   OFFSET 0.000000 -48.923989 0.009793
   CHANNELS 3 Yrotation Xrotation Zrotation
   JOINT RightAnkle
   {
    OFFSET 0.000000 -37.831989 0.111451
    CHANNELS 3 Yrotation Xrotation Zrotation
    JOINT RightToe
    {
     OFFSET 0.000000 -8.084683 17.519885
     CHANNELS 3 Yrotation Xrotation Zrotation
     End Site
     {
      OFFSET 0.000000 -1.047441 5.170765
     }
    }
   }
  }
 }
 JOINT LeftHip
 {
  OFFSET 9.646452 0.044016 -0.006971
  CHANNELS 3 Yrotation Xrotation Zrotation
  JOINT LeftKnee
  {
   OFFSET 0.000000 -48.923989 0.009793
   CHANNELS 3 Yrotation Xrotation Zrotation
   JOINT LeftAnkle
   {
    OFFSET 0.000000 -37.831989 0.111451
    CHANNELS 3 Yrotation Xrotation Zrotation
    JOINT LeftToe
    {
     OFFSET 0.000000 -8.084683 17.519885
     CHANNELS 3 Yrotation Xrotation Zrotation
     End Site
     {
      OFFSET 0.000000 -1.047441 5.170765
     }
    }
   }
  }
 }
}
MOTION
Frames: 16
Frame Time: 0.004167
-57.946435 86.309545 198.422028 -8.902657 -15.065925 -14.767019 -8.139295 10.868680 1.735332 -4.085178 -6.066669 1.096692 -2.850561 3.535713 0.278945 -0.799793 9.364301 0.102825 2.071878 12.154120 1.397197 4.211104 22.522510 3.043618 -14.415263 -3.463375 5.256894 -29.887723 -5.712602 58.605129 26.611158 -27.192840 1.750081 13.595319 0.426698 -1.479674 -7.344968 -5.678352 -4.215253 -25.034319 -39.630371 -37.393706 -28.766274 -1.681154 -4.882893 -7.511012 14.043760 5.698614 7.299633 -39.797182 -7.814187 1.696507 11.063574 0.645285 -6.646804 0.987096 6.215270 -0.000000 0.000000 0.000000 3.710009 -25.859741 5.175840 -2.328320 45.834128 -3.889413 0.507490 -3.053402 13.277893 0.000000 -0.000000 0.000000
-58.113306 86.562121 198.755640 -8.832672 -14.941741 -14.668899 -8.200924 10.860462 1.588049 -4.099303 -6.087232 1.029238 -2.859956 3.531667 0.229097 -0.804361 9.372507 0.088262 2.089605 12.072759 1.409016 4.243386 22.370811 3.065141 -14.413488 -3.484221 5.198354 -30.171053 -5.543151 58.841934 26.589788 -27.623308 1.526929 13.654851 0.473049 -1.963574 -7.515119 -5.643875 -4.392549 -25.484183 -39.922671 -38.065323 -29.190574 -1.482654 -4.826723 -7.536362 14.101615 5.674693 4.951793 -40.215692 -5.564721 1.925013 7.274817 0.450570 -5.445901 1.304614 8.078392 0.000000 -0.000000 -0.000000 3.901954 -25.455186 5.105729 -2.201644 45.340465 -3.771076 0.265742 -3.181101 13.259847 -0.000000 -0.000000 0.000000
-58.280938 86.821110 199.095990 -8.791242 -14.833838 -14.557801 -8.233783 10.855728 1.447875 -4.100262 -6.103862 0.964253 -2.860240 3.529262 0.182623 -0.806314 9.380037 0.074646 2.093104 11.976500 1.417891 4.247388 22.191733 3.077988 -14.406036 -3.516549 5.111208 -30.475757 -5.345360 59.077549 26.576110 -28.160400 1.263307 13.731901 0.530127 -2.529186 -7.684991 -5.623172 -4.573534 -25.898026 -40.163994 -38.783790 -29.663844 -1.231029 -4.738538 -7.542442 14.160965 5.615880 2.274723 -40.557024 -3.044736 2.237534 3.678431 0.312178 -4.169138 1.697414 10.132093 0.000000 0.000000 -0.000000 4.119177 -25.014597 5.014683 -2.038034 44.813583 -3.595782 0.017369 -3.315950 13.237673 -0.000000 -0.000000 0.000000
-58.448171 87.085045 199.441122 -8.770115 -14.743008 -14.436585 -8.244380 10.856097 1.313199 -4.090998 -6.113745 0.901120 -2.853492 3.529357 0.138864 -0.806223 9.386145 0.061822 2.085349 11.867111 1.423475 4.228839 21.988540 3.082130 -14.393091 -3.557302 5.000534 -30.791075 -5.125912 59.309385 26.568288 -28.773902 0.969099 13.823826 0.594873 -3.153248 -7.852543 -5.614734 -4.754275 -26.281523 -40.359181 -39.532208 -30.175019 -0.938907 -4.628436 -7.532349 14.218312 5.531118 -0.618515 -40.806373 -0.340786 2.603151 0.310911 0.248840 -2.878532 2.157184 12.311643 0.000000 0.000000 -0.000000 4.349404 -24.539407 4.907078 -1.848501 44.256426 -3.377831 -0.228721 -3.456140 13.210434 -0.000000 0.000000 0.000000
-58.613846 87.352456 199.789085 -8.761075 -14.670063 -14.308054 -8.239226 10.863176 1.182447 -4.074463 -6.114060 0.839242 -2.841791 3.532814 0.097168 -0.804661 9.390087 0.049634 2.069329 11.746335 1.425414 4.193489 21.764455 3.077522 -14.374824 -3.603411 4.871403 -31.106350 -4.891638 59.535060 26.564208 -29.433524 0.654117 13.927031 0.664334 -3.812626 -8.015718 -5.617048 -4.930865 -26.640998 -40.513020 -40.293090 -30.713457 -0.619776 -4.505637 -7.509514 14.270650 5.429260 -3.610974 -40.961407 2.455947 2.987873 -2.791526 0.268791 -1.626963 2.671853 14.543576 0.000000 0.000000 -0.000000 4.580486 -24.031156 4.787203 -1.643623 43.672085 -3.130885 -0.463621 -3.599821 13.177192 -0.000000 0.000000 0.000000
-58.776806 87.621875 200.137925 -8.755933 -14.615841 -14.174973 -8.224836 10.878558 1.054078 -4.053615 -6.101983 0.778046 -2.827219 3.540500 0.056894 -0.802208 9.391122 0.037919 2.048037 11.615897 1.423350 4.147105 21.522662 3.064097 -14.351406 -3.651817 4.728895 -31.411043 -4.649523 59.752407 26.561359 -30.108896 0.328162 14.036799 0.735664 -4.484385 -8.172446 -5.628605 -5.099415 -26.983279 -40.630306 -41.048490 -31.269017 -0.287958 -4.378468 -7.477626 14.315439 5.319091 -6.585282 -41.034368 5.253282 3.357416 -5.593556 0.370841 -0.459484 3.224956 16.747894 -0.000000 0.000000 -0.000000 4.800420 -23.491500 4.659236 -1.433501 43.063829 -2.867908 -0.678429 -3.745086 13.137010 0.000000 0.000000 0.000000
-58.935890 87.891833 200.485689 -8.746520 -14.581215 -14.040080 -8.207726 10.903819 0.926580 -4.031427 -6.074690 0.716984 -2.811864 3.553283 0.017408 -0.799441 9.388507 0.026516 2.024475 11.477509 1.416928 4.095453 21.266317 3.041770 -14.323014 -3.699491 4.578104 -31.694728 -4.406692 59.959455 26.556761 -30.769574 0.001087 14.147243 0.806127 -5.145827 -8.320653 -5.647901 -5.256051 -27.315565 -40.715879 -41.780126 -31.832095 0.041432 -4.254376 -7.440566 14.350574 5.209340 -9.427411 -41.052499 7.961998 3.679348 -8.061477 0.545253 0.585005 3.795040 18.840202 -0.000000 0.000000 -0.000000 4.997379 -22.922205 4.527206 -1.227723 42.435120 -2.601122 -0.864255 -3.889960 13.088963 -0.000000 0.000000 0.000000
-59.089941 88.160862 200.830423 -8.724682 -14.567094 -13.906103 -8.194418 10.940511 0.798465 -4.010879 -6.029358 0.655527 -2.797814 3.572029 -0.021914 -0.796944 9.381502 0.015259 2.001641 11.332868 1.405793 4.044296 20.998550 3.010427 -14.289834 -3.743441 4.424140 -31.947093 -4.170414 60.154407 26.546954 -31.385048 -0.317150 14.251367 0.873091 -5.774505 -8.458255 -5.673442 -5.396913 -27.645304 -40.774648 -42.469483 -32.393622 0.352559 -4.139964 -7.402365 14.374354 5.108689 -12.029582 -41.056813 10.498925 3.924548 -10.163901 0.774734 1.471908 4.355294 20.733706 0.000000 -0.000000 -0.000000 5.159725 -22.325146 4.394965 -1.035357 41.789611 -2.341997 -1.012222 -4.032391 13.032152 -0.000000 -0.000000 0.000000
-59.237798 88.427492 201.170175 -8.682268 -14.574424 -13.775776 -8.191439 10.990164 0.668254 -3.994958 -5.963168 0.593164 -2.787161 3.597607 -0.061690 -0.795304 9.369367 0.003984 1.982532 11.183663 1.389590 3.999384 20.722467 2.969929 -14.252053 -3.780724 4.272131 -32.157943 -3.948092 60.335600 26.528048 -31.924753 -0.616448 14.341258 0.934010 -6.348190 -8.583165 -5.703748 -5.518153 -27.980081 -40.811578 -43.097905 -32.945022 0.628943 -4.041052 -7.367165 14.385444 5.025781 -14.291352 -41.099495 12.788118 4.067884 -11.872268 1.035834 2.169160 4.873538 22.341034 0.000000 -0.000000 0.000000 5.276022 -21.702297 4.266157 -0.864953 41.131111 -2.101258 -1.113470 -4.170247 12.965709 0.000000 0.000000 0.000000
-59.378305 88.690256 201.502990 -8.611119 -14.604176 -13.651856 -8.205323 11.054281 0.534469 -3.986659 -5.873304 0.529390 -2.782000 3.630883 -0.102527 -0.795111 9.351361 -0.007470 1.970135 11.031569 1.367962 3.966443 20.441151 2.920097 -14.209860 -3.808449 4.127224 -32.317191 -3.747260 60.501451 26.495829 -32.358086 -0.886562 14.408376 0.986402 -6.844782 -8.693281 -5.737353 -5.615936 -28.327529 -40.831665 -43.646664 -33.478143 0.853552 -3.962762 -7.339205 14.382847 4.969214 -16.118287 -41.240261 14.759503 4.088027 -13.161039 1.300962 2.645744 5.312690 23.575840 -0.000000 -0.000000 -0.000000 5.335047 -21.055715 4.144182 -0.724565 40.463553 -1.888916 -1.159159 -4.301314 12.888819 0.000000 0.000000 0.000000
-59.510301 88.947683 201.826917 -8.503064 -14.657344 -13.537145 -8.242612 11.134336 0.395610 -3.988977 -5.756955 0.463705 -2.784426 3.672722 -0.145028 -0.796961 9.326744 -0.019258 1.967430 10.878246 1.340548 3.951170 20.157664 2.860713 -14.163425 -3.823771 3.994574 -32.414856 -3.575572 60.650393 26.445947 -32.654416 -1.117129 14.443967 1.027815 -7.242167 -8.786487 -5.772809 -5.686444 -28.695258 -40.839884 -44.097004 -33.985163 1.008896 -3.909619 -7.322810 14.365868 4.947542 -17.418060 -41.542006 16.344786 3.966351 -14.007486 1.541124 2.870713 5.631718 24.354229 -0.000000 0.000000 -0.000000 5.325791 -20.387523 4.032165 -0.621781 39.790934 -1.714319 -1.140476 -4.423303 12.800731 0.000000 -0.000000 -0.000000
-59.632928 89.202188 202.145765 -8.372402 -14.753958 -13.422336 -8.295440 11.238752 0.249914 -3.997829 -5.601464 0.395208 -2.791689 3.727502 -0.189080 -0.800130 9.292609 -0.031407 1.972023 10.712292 1.302231 3.947750 19.851028 2.781152 -14.108781 -3.825759 3.855236 -32.443635 -3.423355 60.792446 26.376786 -32.829841 -1.322276 14.447325 1.063347 -7.560509 -8.857780 -5.818842 -5.728474 -29.091860 -40.812746 -44.454762 -34.486894 1.092780 -3.865370 -7.315560 14.329383 4.955732 -18.210968 -42.029034 17.587149 3.639184 -14.302116 1.709227 2.918925 5.800222 24.626302 -0.000000 0.000000 0.000000 5.238129 -19.668038 3.915158 -0.562276 39.101620 -1.562967 -1.032423 -4.543064 12.697108 0.000000 0.000000 -0.000000
-59.746903 89.456907 202.464089 -8.237302 -14.905765 -13.298585 -8.351747 11.371217 0.097860 -4.007464 -5.401854 0.323953 -2.799785 3.797056 -0.233927 -0.803543 9.247913 -0.043777 1.979109 10.524627 1.250123 3.946348 19.504493 2.674939 -14.043382 -3.816931 3.691502 -32.409798 -3.277072 60.936276 26.290848 -32.927857 -1.521746 14.425163 1.099207 -7.837043 -8.906276 -5.882654 -5.745480 -29.515112 -40.729974 -44.743733 -35.006880 1.121962 -3.811626 -7.311805 14.271681 4.981517 -18.618934 -42.676213 18.595056 3.081408 -14.010186 1.773410 2.899736 5.825895 24.446317 -0.000000 0.000000 0.000000 5.077776 -18.876666 3.778379 -0.539670 38.384361 -1.411710 -0.828461 -4.666899 12.576316 0.000000 -0.000000 -0.000000
-59.853434 89.711459 202.781054 -8.095347 -15.101343 -13.169426 -8.411783 11.526094 -0.058703 -4.018369 -5.166834 0.250845 -2.808928 3.878442 -0.279208 -0.807269 9.194711 -0.056252 1.988055 10.320380 1.187201 3.946606 19.127452 2.548009 -13.969485 -3.799653 3.510393 -32.323887 -3.138608 61.078141 26.190132 -32.958919 -1.713622 14.380369 1.134598 -8.075029 -8.935999 -5.960513 -5.740664 -29.956136 -40.601246 -44.972253 -35.541309 1.106921 -3.749634 -7.310971 14.197307 5.022490 -18.696501 -43.467911 19.392760 2.331295 -13.221469 1.733228 2.826211 5.724669 23.889234 -0.000000 0.000000 0.000000 4.857700 -18.029148 3.625087 -0.543515 37.643693 -1.257216 -0.547531 -4.791634 12.441683 0.000000 0.000000 0.000000
-59.953724 89.965464 203.095825 -7.944066 -15.329265 -13.038377 -8.475773 11.697767 -0.217913 -4.031005 -4.905100 0.176788 -2.819323 3.968723 -0.324558 -0.811364 9.135064 -0.068718 1.998238 10.104687 1.116440 3.948133 18.729321 2.406246 -13.889298 -3.776294 3.318936 -32.196562 -3.009679 61.214177 26.076833 -32.933485 -1.896106 14.316239 1.168719 -8.277645 -8.950957 -6.048672 -5.717237 -30.405888 -40.436195 -45.148763 -36.086029 1.057896 -3.681077 -7.312340 14.110702 5.076153 -18.494759 -44.384628 20.001691 1.425270 -12.023739 1.594316 2.704172 5.515215 23.029550 -0.000000 0.000000 -0.000000 4.590902 -17.141103 3.458952 -0.563867 36.884054 -1.097231 -0.208666 -4.914180 12.296486 0.000000 0.000000 -0.000000
-60.048981 90.218538 203.407567 -7.780918 -15.578099 -12.908954 -8.543911 11.880646 -0.377875 -4.045785 -4.625344 0.102695 -2.831160 4.064966 -0.369605 -0.815876 9.071030 -0.081060 2.009039 9.882689 1.040804 3.950482 18.319537 2.255477 -13.804949 -3.749232 3.124170 -32.038593 -2.891764 61.340430 25.953350 -32.862011 -2.067533 14.236373 1.200757 -8.448066 -8.955150 -6.143369 -5.678405 -30.855280 -40.244443 -45.281693 -36.636583 0.984877 -3.608093 -7.315064 14.016201 5.139918 -18.062887 -45.404305 20.441784 0.399146 -10.502609 1.367764 2.535092 5.218875 21.941093 -0.000000 0.000000 -0.000000 4.290371 -16.227976 3.284297 -0.591282 36.109744 -0.930647 0.169009 -5.031612 12.143923 0.000000 -0.000000 -0.000000
